<svg width="10" height="10" viewBox="0 0 10 10" fill="none" xmlns="http://www.w3.org/2000/svg">
<path d="M2.08333 8.75C1.85417 8.75 1.65625 8.67014 1.48958 8.51042C1.32986 8.34375 1.25 8.14583 1.25 7.91667V2.08333C1.25 1.85417 1.32986 1.65972 1.48958 1.5C1.65625 1.33333 1.85417 1.25 2.08333 1.25H7.91667C8.14583 1.25 8.34028 1.33333 8.5 1.5C8.66667 1.65972 8.75 1.85417 8.75 2.08333V7.91667C8.75 8.14583 8.66667 8.34375 8.5 8.51042C8.34028 8.67014 8.14583 8.75 7.91667 8.75H2.08333ZM5 6.66667C5.26389 6.66667 5.50347 6.59028 5.71875 6.4375C5.93403 6.28472 6.08333 6.08333 6.16667 5.83333H7.91667V2.08333H2.08333V5.83333H3.83333C3.91667 6.08333 4.06597 6.28472 4.28125 6.4375C4.49653 6.59028 4.73611 6.66667 5 6.66667Z" fill="#FEF7FF"/>
</svg>
