<?xml version="1.0" standalone="no"?>
<!DOCTYPE svg PUBLIC "-//W3C//DTD SVG 20010904//EN"
 "http://www.w3.org/TR/2001/REC-SVG-20010904/DTD/svg10.dtd">
<svg version="1.0" xmlns="http://www.w3.org/2000/svg"
 width="800.000000pt" height="800.000000pt" viewBox="0 0 800.000000 800.000000"
 preserveAspectRatio="xMidYMid meet">

<g transform="translate(0.000000,800.000000) scale(0.100000,-0.100000)"
fill="currentColor" stroke="none">
<path d="M2385 7583 c-33 -2 -64 -8 -69 -14 -6 -5 -18 -9 -28 -9 -10 0 -48
-14 -83 -32 -78 -38 -185 -140 -222 -212 -55 -107 -62 -149 -63 -328 0 -122
-3 -169 -12 -175 -7 -4 -105 -8 -218 -8 -202 -1 -206 -1 -297 -32 -169 -56
-359 -191 -432 -307 -55 -88 -91 -155 -109 -201 -14 -38 -19 -61 -41 -172 -6
-29 -10 -1008 -10 -2489 -1 -2354 0 -2444 18 -2530 10 -49 24 -102 31 -119 7
-16 20 -46 28 -65 47 -111 176 -262 291 -340 82 -55 234 -117 320 -130 44 -7
901 -10 2546 -8 l2480 3 70 21 c192 58 341 161 454 313 81 109 151 277 151
363 0 15 5 28 10 28 7 0 10 830 10 2470 0 1640 -3 2470 -10 2470 -5 0 -10 13
-10 28 0 95 -86 289 -177 397 -181 215 -425 318 -715 301 -53 -3 -108 -2 -121
3 l-25 10 -4 178 c-5 193 -12 223 -77 336 -94 164 -293 269 -479 252 -210 -19
-373 -139 -453 -336 -28 -68 -30 -84 -36 -248 -3 -97 -10 -181 -15 -188 -6 -8
-78 -10 -256 -8 -136 2 -253 3 -259 4 -10 1 -13 39 -13 155 0 131 -3 165 -23
234 -55 190 -182 316 -375 374 -53 16 -84 19 -148 15 -105 -8 -172 -29 -259
-85 -91 -58 -143 -115 -187 -204 -44 -86 -60 -190 -59 -364 1 -85 -2 -114 -13
-123 -14 -12 -435 -15 -498 -4 l-28 5 0 146 c0 170 -14 242 -68 346 -49 94
-125 173 -203 214 -87 44 -175 72 -218 70 -20 -1 -63 -3 -96 -5z m127 -305
c50 -15 133 -104 148 -158 7 -26 10 -222 8 -577 -3 -533 -3 -538 -25 -579 -43
-81 -144 -141 -217 -129 -57 10 -112 40 -152 83 -63 68 -64 79 -64 650 0 341
4 527 11 551 38 127 166 197 291 159z m1589 0 c77 -26 130 -89 154 -182 12
-47 15 -143 15 -534 0 -494 -3 -531 -43 -608 -35 -67 -117 -117 -193 -116 -64
0 -118 27 -167 81 -66 73 -67 84 -67 646 0 543 2 562 55 635 52 71 163 107
246 78z m1593 0 c55 -16 128 -91 145 -149 16 -53 25 -942 10 -1058 -12 -103
-41 -156 -108 -199 -44 -28 -64 -35 -106 -35 -66 0 -131 29 -176 80 -65 72
-64 63 -64 643 0 576 0 577 60 647 62 73 147 98 239 71z m1010 -1714 c12 -30
8 -4347 -4 -4399 -6 -26 -18 -61 -26 -79 -26 -50 -105 -125 -164 -154 l-55
-27 -2434 -3 c-2267 -2 -2438 -1 -2480 15 -101 37 -170 99 -212 190 l-29 62 0
2196 c0 1208 2 2200 5 2205 4 7 985 10 2700 10 2466 0 2693 -1 2699 -16z"/>
<path d="M1752 4688 c-9 -9 -12 -112 -12 -400 l0 -388 450 0 450 0 0 43 c4
394 5 726 2 740 -4 16 -33 17 -441 17 -327 0 -440 -3 -449 -12z"/>
<path d="M2947 4693 c-2 -5 -1 -183 2 -398 l6 -390 448 -3 447 -2 0 400 0 400
-449 0 c-248 0 -452 -3 -454 -7z"/>
<path d="M4167 4693 c-4 -3 -7 -183 -7 -400 l0 -393 450 0 450 0 0 400 0 400
-443 0 c-244 0 -447 -3 -450 -7z"/>
<path d="M5373 4693 c-10 -4 -13 -93 -13 -399 l0 -394 455 0 455 0 -2 398 -3
397 -440 2 c-242 1 -446 -1 -452 -4z"/>
<path d="M1748 3608 c-11 -18 -13 -105 -10 -400 l3 -378 449 0 449 0 3 193 c2
105 2 283 0 393 -3 198 -4 202 -25 208 -12 3 -210 6 -439 6 l-418 0 -12 -22z"/>
<path d="M2953 3618 c-6 -8 -8 -157 -4 -398 l6 -385 448 -3 447 -2 0 394 c0
350 -2 395 -16 400 -9 3 -208 6 -444 6 -330 0 -430 -3 -437 -12z"/>
<path d="M4163 3613 c-5 -10 -7 -190 -5 -400 l3 -383 450 0 449 0 -2 398 -3
397 -442 3 c-414 2 -443 1 -450 -15z"/>
<path d="M5371 3616 c-8 -9 -10 -122 -9 -397 l3 -384 453 -3 452 -2 0 394 c0
350 -2 395 -16 400 -9 3 -208 6 -444 6 -349 0 -430 -2 -439 -14z"/>
<path d="M1751 2546 c-8 -9 -10 -130 -9 -402 l3 -389 439 -3 c242 -1 444 2
448 6 11 11 18 766 8 782 -12 20 -873 25 -889 6z"/>
<path d="M2953 2547 c-10 -15 -4 -779 6 -790 4 -4 205 -6 447 -5 l439 3 3 394
c1 274 -1 397 -9 401 -5 4 -206 8 -444 8 -333 1 -436 -1 -442 -11z"/>
<path d="M4164 2547 c-2 -7 -3 -188 -2 -402 l3 -390 445 0 445 0 0 400 0 400
-443 2 c-332 1 -444 -2 -448 -10z"/>
<path d="M5372 2548 c-19 -19 -17 -771 2 -787 9 -8 136 -10 452 -9 l439 3 0
400 0 400 -440 3 c-340 2 -443 0 -453 -10z"/>
</g>
</svg>
